{
	"asset":{
		"copyright":"Khyoocumber (https://sketchfab.com/Khyoocumber)",
		"generator":"Khronos glTF Blender I/O v4.3.47",
		"version":"2.0"
	},
	"extensionsUsed":[
		"KHR_materials_unlit"
	],
	"scene":0,
	"scenes":[
		{
			"name":"Scene",
			"nodes":[
				7
			]
		}
	],
	"nodes":[
		{
			"mesh":0,
			"name":"body",
			"translation":[
				0,
				3.0936226844787598,
				-0.006823207717388868
			]
		},
		{
			"mesh":1,
			"name":"butterfly",
			"translation":[
				0,
				3.0936226844787598,
				-0.006823207717388868
			]
		},
		{
			"mesh":2,
			"name":"crown-base",
			"translation":[
				0,
				3.0936226844787598,
				-0.006823207717388868
			]
		},
		{
			"mesh":3,
			"name":"crown-halo",
			"translation":[
				0,
				3.0936226844787598,
				-0.006823207717388868
			]
		},
		{
			"mesh":4,
			"name":"left-ribbon",
			"translation":[
				0,
				3.0936226844787598,
				-0.006823207717388868
			]
		},
		{
			"mesh":5,
			"name":"neck-ribbon",
			"translation":[
				0,
				3.0936226844787598,
				-0.006823207717388868
			]
		},
		{
			"mesh":6,
			"name":"right-ribbon",
			"translation":[
				0,
				3.0936226844787598,
				-0.006823207717388868
			]
		},
		{
			"children":[
				0,
				1,
				2,
				3,
				4,
				5,
				6
			],
			"name":"root",
			"rotation":[
				-0.5000017881393433,
				0.5000017881393433,
				0.49999821186065674,
				0.49999821186065674
			],
			"scale":[
				10,
				10,
				10
			]
		}
	],
	"materials":[
		{
			"doubleSided":true,
			"extensions":{
				"KHR_materials_unlit":{}
			},
			"name":"Mnupao_10002_Mnupao_T_10002",
			"pbrMetallicRoughness":{
				"baseColorTexture":{
					"index":0
				},
				"metallicFactor":0,
				"roughnessFactor":0.9
			}
		}
	],
	"meshes":[
		{
			"name":"Mnupao_10002_Mnupao_M_10002_Mnupao_10002_Mnupao_T_10002_0",
			"primitives":[
				{
					"attributes":{
						"POSITION":0,
						"NORMAL":1,
						"TEXCOORD_0":2
					},
					"indices":3,
					"material":0
				}
			]
		},
		{
			"name":"Mnupao_10002_Mnupao_M_10002_Mnupao_10002_Mnupao_T_10002_0.006",
			"primitives":[
				{
					"attributes":{
						"POSITION":4,
						"NORMAL":5,
						"TEXCOORD_0":6
					},
					"indices":7,
					"material":0
				}
			]
		},
		{
			"name":"Mnupao_10002_Mnupao_M_10002_Mnupao_10002_Mnupao_T_10002_0.005",
			"primitives":[
				{
					"attributes":{
						"POSITION":8,
						"NORMAL":9,
						"TEXCOORD_0":10
					},
					"indices":11,
					"material":0
				}
			]
		},
		{
			"name":"Mnupao_10002_Mnupao_M_10002_Mnupao_10002_Mnupao_T_10002_0.004",
			"primitives":[
				{
					"attributes":{
						"POSITION":12,
						"NORMAL":13,
						"TEXCOORD_0":14
					},
					"indices":15,
					"material":0
				}
			]
		},
		{
			"name":"Mnupao_10002_Mnupao_M_10002_Mnupao_10002_Mnupao_T_10002_0.001",
			"primitives":[
				{
					"attributes":{
						"POSITION":16,
						"NORMAL":17,
						"TEXCOORD_0":18
					},
					"indices":19,
					"material":0
				}
			]
		},
		{
			"name":"Mnupao_10002_Mnupao_M_10002_Mnupao_10002_Mnupao_T_10002_0.003",
			"primitives":[
				{
					"attributes":{
						"POSITION":20,
						"NORMAL":21,
						"TEXCOORD_0":22
					},
					"indices":23,
					"material":0
				}
			]
		},
		{
			"name":"Mnupao_10002_Mnupao_M_10002_Mnupao_10002_Mnupao_T_10002_0.002",
			"primitives":[
				{
					"attributes":{
						"POSITION":24,
						"NORMAL":25,
						"TEXCOORD_0":26
					},
					"indices":27,
					"material":0
				}
			]
		}
	],
	"textures":[
		{
			"sampler":0,
			"source":0
		}
	],
	"images":[
		{
			"mimeType":"image/png",
			"name":"Mnupao_10002_Mnupao_T_10002_baseColor.png",
			"uri":"textures/dragon-base-color.png"
		}
	],
	"accessors":[
		{
			"bufferView":0,
			"componentType":5126,
			"count":4704,
			"max":[
				0.7344930171966553,
				8.141332626342773,
				2.2381691932678223
			],
			"min":[
				-0.7344931364059448,
				-4.012628555297852,
				-0.31827986240386963
			],
			"type":"VEC3"
		},
		{
			"bufferView":1,
			"componentType":5126,
			"count":4704,
			"type":"VEC3"
		},
		{
			"bufferView":2,
			"componentType":5126,
			"count":4704,
			"type":"VEC2"
		},
		{
			"bufferView":3,
			"componentType":5123,
			"count":15123,
			"type":"SCALAR"
		},
		{
			"bufferView":4,
			"componentType":5126,
			"count":6,
			"max":[
				-0.9334772229194641,
				2.1883773803710938,
				0.8283955454826355
			],
			"min":[
				-1.1406140327453613,
				1.9732645750045776,
				0.7278674244880676
			],
			"type":"VEC3"
		},
		{
			"bufferView":5,
			"componentType":5126,
			"count":6,
			"type":"VEC3"
		},
		{
			"bufferView":6,
			"componentType":5126,
			"count":6,
			"type":"VEC2"
		},
		{
			"bufferView":7,
			"componentType":5123,
			"count":6,
			"type":"SCALAR"
		},
		{
			"bufferView":8,
			"componentType":5126,
			"count":897,
			"max":[
				0.5364269614219666,
				-1.277087926864624,
				2.1360013484954834
			],
			"min":[
				-0.5364269018173218,
				-2.4127442836761475,
				0.8374621272087097
			],
			"type":"VEC3"
		},
		{
			"bufferView":9,
			"componentType":5126,
			"count":897,
			"type":"VEC3"
		},
		{
			"bufferView":10,
			"componentType":5126,
			"count":897,
			"type":"VEC2"
		},
		{
			"bufferView":11,
			"componentType":5123,
			"count":2136,
			"type":"SCALAR"
		},
		{
			"bufferView":12,
			"componentType":5126,
			"count":56,
			"max":[
				0.42467203736305237,
				-1.6371798515319824,
				1.6985480785369873
			],
			"min":[
				-0.4246719777584076,
				-2.4865236282348633,
				1.614971399307251
			],
			"type":"VEC3"
		},
		{
			"bufferView":13,
			"componentType":5126,
			"count":56,
			"type":"VEC3"
		},
		{
			"bufferView":14,
			"componentType":5126,
			"count":56,
			"type":"VEC2"
		},
		{
			"bufferView":15,
			"componentType":5123,
			"count":144,
			"type":"SCALAR"
		},
		{
			"bufferView":16,
			"componentType":5126,
			"count":180,
			"max":[
				1.403469204902649,
				4.7183942794799805,
				0.9935863018035889
			],
			"min":[
				0.2771856486797333,
				-2.309765100479126,
				0.6618896126747131
			],
			"type":"VEC3"
		},
		{
			"bufferView":17,
			"componentType":5126,
			"count":180,
			"type":"VEC3"
		},
		{
			"bufferView":18,
			"componentType":5126,
			"count":180,
			"type":"VEC2"
		},
		{
			"bufferView":19,
			"componentType":5123,
			"count":396,
			"type":"SCALAR"
		},
		{
			"bufferView":20,
			"componentType":5126,
			"count":100,
			"max":[
				0.5628366470336914,
				0.4234016239643097,
				2.205249547958374
			],
			"min":[
				-0.5628366470336914,
				-2.21393084526062,
				0.9885575175285339
			],
			"type":"VEC3"
		},
		{
			"bufferView":21,
			"componentType":5126,
			"count":100,
			"type":"VEC3"
		},
		{
			"bufferView":22,
			"componentType":5126,
			"count":100,
			"type":"VEC2"
		},
		{
			"bufferView":23,
			"componentType":5123,
			"count":276,
			"type":"SCALAR"
		},
		{
			"bufferView":24,
			"componentType":5126,
			"count":174,
			"max":[
				-0.2771856486797333,
				4.7183942794799805,
				0.9935863018035889
			],
			"min":[
				-1.403469204902649,
				-2.309765100479126,
				0.6618896126747131
			],
			"type":"VEC3"
		},
		{
			"bufferView":25,
			"componentType":5126,
			"count":174,
			"type":"VEC3"
		},
		{
			"bufferView":26,
			"componentType":5126,
			"count":174,
			"type":"VEC2"
		},
		{
			"bufferView":27,
			"componentType":5123,
			"count":390,
			"type":"SCALAR"
		}
	],
	"bufferViews":[
		{
			"buffer":0,
			"byteLength":56448,
			"byteOffset":0,
			"target":34962
		},
		{
			"buffer":0,
			"byteLength":56448,
			"byteOffset":56448,
			"target":34962
		},
		{
			"buffer":0,
			"byteLength":37632,
			"byteOffset":112896,
			"target":34962
		},
		{
			"buffer":0,
			"byteLength":30246,
			"byteOffset":150528,
			"target":34963
		},
		{
			"buffer":0,
			"byteLength":72,
			"byteOffset":180776,
			"target":34962
		},
		{
			"buffer":0,
			"byteLength":72,
			"byteOffset":180848,
			"target":34962
		},
		{
			"buffer":0,
			"byteLength":48,
			"byteOffset":180920,
			"target":34962
		},
		{
			"buffer":0,
			"byteLength":12,
			"byteOffset":180968,
			"target":34963
		},
		{
			"buffer":0,
			"byteLength":10764,
			"byteOffset":180980,
			"target":34962
		},
		{
			"buffer":0,
			"byteLength":10764,
			"byteOffset":191744,
			"target":34962
		},
		{
			"buffer":0,
			"byteLength":7176,
			"byteOffset":202508,
			"target":34962
		},
		{
			"buffer":0,
			"byteLength":4272,
			"byteOffset":209684,
			"target":34963
		},
		{
			"buffer":0,
			"byteLength":672,
			"byteOffset":213956,
			"target":34962
		},
		{
			"buffer":0,
			"byteLength":672,
			"byteOffset":214628,
			"target":34962
		},
		{
			"buffer":0,
			"byteLength":448,
			"byteOffset":215300,
			"target":34962
		},
		{
			"buffer":0,
			"byteLength":288,
			"byteOffset":215748,
			"target":34963
		},
		{
			"buffer":0,
			"byteLength":2160,
			"byteOffset":216036,
			"target":34962
		},
		{
			"buffer":0,
			"byteLength":2160,
			"byteOffset":218196,
			"target":34962
		},
		{
			"buffer":0,
			"byteLength":1440,
			"byteOffset":220356,
			"target":34962
		},
		{
			"buffer":0,
			"byteLength":792,
			"byteOffset":221796,
			"target":34963
		},
		{
			"buffer":0,
			"byteLength":1200,
			"byteOffset":222588,
			"target":34962
		},
		{
			"buffer":0,
			"byteLength":1200,
			"byteOffset":223788,
			"target":34962
		},
		{
			"buffer":0,
			"byteLength":800,
			"byteOffset":224988,
			"target":34962
		},
		{
			"buffer":0,
			"byteLength":552,
			"byteOffset":225788,
			"target":34963
		},
		{
			"buffer":0,
			"byteLength":2088,
			"byteOffset":226340,
			"target":34962
		},
		{
			"buffer":0,
			"byteLength":2088,
			"byteOffset":228428,
			"target":34962
		},
		{
			"buffer":0,
			"byteLength":1392,
			"byteOffset":230516,
			"target":34962
		},
		{
			"buffer":0,
			"byteLength":780,
			"byteOffset":231908,
			"target":34963
		}
	],
	"samplers":[
		{
			"magFilter":9729,
			"minFilter":9987
		}
	],
	"buffers":[
		{
			"byteLength":232688,
			"uri":"dragon-low.bin"
		}
	]
}
